<mxfile host="app.diagrams.net" agent="Mozilla/5.0 (Windows NT 10.0; Win64; x64) AppleWebKit/537.36 (KHTML, like Gecko) Chrome/133.0.0.0 Safari/537.36 Edg/133.0.0.0" version="26.0.15">
  <diagram name="Page-1" id="TtVOlRemjwNkNCwVZRvZ">
    <mxGraphModel dx="3384" dy="1824" grid="0" gridSize="10" guides="1" tooltips="1" connect="1" arrows="1" fold="1" page="0" pageScale="1" pageWidth="850" pageHeight="1100" background="none" math="0" shadow="0">
      <root>
        <mxCell id="0" />
        <mxCell id="1" parent="0" />
        <mxCell id="lAHb_dFoVDbz8oUHS4nn-1" value="" style="rounded=0;whiteSpace=wrap;html=1;labelBackgroundColor=none;fillColor=#FAE5C7;strokeColor=#0F8B8D;fontColor=#143642;" parent="1" vertex="1">
          <mxGeometry x="-45" y="828" width="135" height="63" as="geometry" />
        </mxCell>
        <mxCell id="lAHb_dFoVDbz8oUHS4nn-3" value="seat_count" style="ellipse;whiteSpace=wrap;html=1;labelBackgroundColor=none;fillColor=#FAE5C7;strokeColor=#0F8B8D;fontColor=#143642;" parent="1" vertex="1">
          <mxGeometry x="-243" y="744" width="120" height="80" as="geometry" />
        </mxCell>
        <mxCell id="lAHb_dFoVDbz8oUHS4nn-4" value="number" style="ellipse;whiteSpace=wrap;html=1;labelBackgroundColor=none;fillColor=#FAE5C7;strokeColor=#0F8B8D;fontColor=#143642;" parent="1" vertex="1">
          <mxGeometry x="-275" y="844" width="120" height="80" as="geometry" />
        </mxCell>
        <mxCell id="lAHb_dFoVDbz8oUHS4nn-5" value="type" style="ellipse;whiteSpace=wrap;html=1;labelBackgroundColor=none;fillColor=#FAE5C7;strokeColor=#0F8B8D;fontColor=#143642;" parent="1" vertex="1">
          <mxGeometry x="-159" y="652" width="120" height="80" as="geometry" />
        </mxCell>
        <mxCell id="lAHb_dFoVDbz8oUHS4nn-6" value="location_name" style="ellipse;whiteSpace=wrap;html=1;labelBackgroundColor=none;fillColor=#FAE5C7;strokeColor=#0F8B8D;fontColor=#143642;" parent="1" vertex="1">
          <mxGeometry x="-14" y="649" width="120" height="80" as="geometry" />
        </mxCell>
        <mxCell id="lAHb_dFoVDbz8oUHS4nn-7" value="address" style="ellipse;whiteSpace=wrap;html=1;labelBackgroundColor=none;fillColor=#FAE5C7;strokeColor=#0F8B8D;fontColor=#143642;" parent="1" vertex="1">
          <mxGeometry x="163" y="777" width="120" height="80" as="geometry" />
        </mxCell>
        <mxCell id="lAHb_dFoVDbz8oUHS4nn-8" value="&#xa;id&#xa;&#xa;" style="ellipse;whiteSpace=wrap;html=1;labelBackgroundColor=none;fillColor=#FAE5C7;strokeColor=#0F8B8D;fontColor=#143642;" parent="1" vertex="1">
          <mxGeometry x="-155" y="936" width="120" height="71" as="geometry" />
        </mxCell>
        <mxCell id="lAHb_dFoVDbz8oUHS4nn-11" value="" style="endArrow=none;html=1;rounded=0;fontSize=12;startSize=8;endSize=8;curved=1;exitX=1;exitY=0;exitDx=0;exitDy=0;labelBackgroundColor=none;strokeColor=#A8201A;fontColor=default;" parent="1" source="lAHb_dFoVDbz8oUHS4nn-1" target="lAHb_dFoVDbz8oUHS4nn-7" edge="1">
          <mxGeometry width="50" height="50" relative="1" as="geometry">
            <mxPoint x="74" y="845" as="sourcePoint" />
            <mxPoint x="124" y="795" as="targetPoint" />
          </mxGeometry>
        </mxCell>
        <mxCell id="lAHb_dFoVDbz8oUHS4nn-13" value="" style="endArrow=none;html=1;rounded=0;fontSize=12;startSize=8;endSize=8;curved=1;entryX=0.5;entryY=1;entryDx=0;entryDy=0;exitX=0.25;exitY=0;exitDx=0;exitDy=0;labelBackgroundColor=none;strokeColor=#A8201A;fontColor=default;" parent="1" source="lAHb_dFoVDbz8oUHS4nn-1" target="lAHb_dFoVDbz8oUHS4nn-5" edge="1">
          <mxGeometry width="50" height="50" relative="1" as="geometry">
            <mxPoint x="-17" y="824" as="sourcePoint" />
            <mxPoint x="21" y="759" as="targetPoint" />
          </mxGeometry>
        </mxCell>
        <mxCell id="lAHb_dFoVDbz8oUHS4nn-14" value="" style="endArrow=none;html=1;rounded=0;fontSize=12;startSize=8;endSize=8;curved=1;exitX=0.973;exitY=0.698;exitDx=0;exitDy=0;exitPerimeter=0;labelBackgroundColor=none;strokeColor=#A8201A;fontColor=default;" parent="1" source="lAHb_dFoVDbz8oUHS4nn-4" edge="1">
          <mxGeometry width="50" height="50" relative="1" as="geometry">
            <mxPoint x="-152" y="908" as="sourcePoint" />
            <mxPoint x="-46" y="858" as="targetPoint" />
          </mxGeometry>
        </mxCell>
        <mxCell id="lAHb_dFoVDbz8oUHS4nn-15" value="" style="endArrow=none;html=1;rounded=0;fontSize=12;startSize=8;endSize=8;curved=1;entryX=0;entryY=0;entryDx=0;entryDy=0;exitX=1;exitY=1;exitDx=0;exitDy=0;labelBackgroundColor=none;strokeColor=#A8201A;fontColor=default;" parent="1" source="lAHb_dFoVDbz8oUHS4nn-3" target="lAHb_dFoVDbz8oUHS4nn-1" edge="1">
          <mxGeometry width="50" height="50" relative="1" as="geometry">
            <mxPoint x="-167" y="759" as="sourcePoint" />
            <mxPoint x="-48" y="827" as="targetPoint" />
          </mxGeometry>
        </mxCell>
        <mxCell id="lAHb_dFoVDbz8oUHS4nn-16" value="" style="endArrow=none;html=1;rounded=0;fontSize=12;startSize=8;endSize=8;curved=1;entryX=0.5;entryY=1;entryDx=0;entryDy=0;exitX=0.458;exitY=0;exitDx=0;exitDy=0;exitPerimeter=0;labelBackgroundColor=none;strokeColor=#A8201A;fontColor=default;" parent="1" source="lAHb_dFoVDbz8oUHS4nn-1" target="lAHb_dFoVDbz8oUHS4nn-6" edge="1">
          <mxGeometry width="50" height="50" relative="1" as="geometry">
            <mxPoint x="4" y="828" as="sourcePoint" />
            <mxPoint x="110" y="778" as="targetPoint" />
          </mxGeometry>
        </mxCell>
        <mxCell id="lAHb_dFoVDbz8oUHS4nn-17" value="" style="endArrow=none;html=1;rounded=0;fontSize=12;startSize=8;endSize=8;curved=1;entryX=1;entryY=0;entryDx=0;entryDy=0;exitX=0.25;exitY=1;exitDx=0;exitDy=0;labelBackgroundColor=none;strokeColor=#A8201A;fontColor=default;" parent="1" source="lAHb_dFoVDbz8oUHS4nn-1" target="lAHb_dFoVDbz8oUHS4nn-8" edge="1">
          <mxGeometry width="50" height="50" relative="1" as="geometry">
            <mxPoint x="124" y="895" as="sourcePoint" />
            <mxPoint x="230" y="845" as="targetPoint" />
          </mxGeometry>
        </mxCell>
        <mxCell id="lAHb_dFoVDbz8oUHS4nn-19" value="" style="rounded=0;whiteSpace=wrap;html=1;labelBackgroundColor=none;fillColor=#FAE5C7;strokeColor=#0F8B8D;fontColor=#143642;" parent="1" vertex="1">
          <mxGeometry x="1591" y="-49" width="134" height="60" as="geometry" />
        </mxCell>
        <mxCell id="lAHb_dFoVDbz8oUHS4nn-20" value="position" style="ellipse;whiteSpace=wrap;html=1;labelBackgroundColor=none;fillColor=#FAE5C7;strokeColor=#0F8B8D;fontColor=#143642;" parent="1" vertex="1">
          <mxGeometry x="1614" y="-228" width="120" height="80" as="geometry" />
        </mxCell>
        <mxCell id="lAHb_dFoVDbz8oUHS4nn-21" value="full_name" style="ellipse;whiteSpace=wrap;html=1;labelBackgroundColor=none;fillColor=#FAE5C7;strokeColor=#0F8B8D;fontColor=#143642;" parent="1" vertex="1">
          <mxGeometry x="1464" y="-208" width="120" height="80" as="geometry" />
        </mxCell>
        <mxCell id="lAHb_dFoVDbz8oUHS4nn-25" value="&#xa;id&#xa;&#xa;" style="ellipse;whiteSpace=wrap;html=1;labelBackgroundColor=none;fillColor=#FAE5C7;strokeColor=#0F8B8D;fontColor=#143642;" parent="1" vertex="1">
          <mxGeometry x="1751" y="-208" width="120" height="80" as="geometry" />
        </mxCell>
        <mxCell id="lAHb_dFoVDbz8oUHS4nn-28" value="" style="endArrow=none;html=1;rounded=0;fontSize=12;startSize=8;endSize=8;curved=1;exitX=0.717;exitY=0.966;exitDx=0;exitDy=0;entryX=0.25;entryY=0;entryDx=0;entryDy=0;exitPerimeter=0;labelBackgroundColor=none;strokeColor=#A8201A;fontColor=default;" parent="1" source="lAHb_dFoVDbz8oUHS4nn-21" target="lAHb_dFoVDbz8oUHS4nn-19" edge="1">
          <mxGeometry width="50" height="50" relative="1" as="geometry">
            <mxPoint x="1480" y="39" as="sourcePoint" />
            <mxPoint x="1584" y="-34" as="targetPoint" />
          </mxGeometry>
        </mxCell>
        <mxCell id="lAHb_dFoVDbz8oUHS4nn-29" value="" style="endArrow=none;html=1;rounded=0;fontSize=12;startSize=8;endSize=8;curved=1;entryX=0.5;entryY=0;entryDx=0;entryDy=0;labelBackgroundColor=none;strokeColor=#A8201A;fontColor=default;" parent="1" source="lAHb_dFoVDbz8oUHS4nn-20" target="lAHb_dFoVDbz8oUHS4nn-19" edge="1">
          <mxGeometry width="50" height="50" relative="1" as="geometry">
            <mxPoint x="1465" y="-110" as="sourcePoint" />
            <mxPoint x="1584" y="-42" as="targetPoint" />
          </mxGeometry>
        </mxCell>
        <mxCell id="lAHb_dFoVDbz8oUHS4nn-31" value="" style="endArrow=none;html=1;rounded=0;fontSize=12;startSize=8;endSize=8;curved=1;entryX=0.392;entryY=0.972;entryDx=0;entryDy=0;exitX=0.839;exitY=0.036;exitDx=0;exitDy=0;exitPerimeter=0;entryPerimeter=0;labelBackgroundColor=none;strokeColor=#A8201A;fontColor=default;" parent="1" source="lAHb_dFoVDbz8oUHS4nn-19" target="lAHb_dFoVDbz8oUHS4nn-25" edge="1">
          <mxGeometry width="50" height="50" relative="1" as="geometry">
            <mxPoint x="1584" y="16" as="sourcePoint" />
            <mxPoint x="1862" y="-24" as="targetPoint" />
          </mxGeometry>
        </mxCell>
        <mxCell id="lAHb_dFoVDbz8oUHS4nn-39" value="" style="rounded=0;whiteSpace=wrap;html=1;labelBackgroundColor=none;fillColor=#FAE5C7;strokeColor=#0F8B8D;fontColor=#143642;" parent="1" vertex="1">
          <mxGeometry x="1341" y="829" width="146" height="73" as="geometry" />
        </mxCell>
        <mxCell id="lAHb_dFoVDbz8oUHS4nn-40" value="code" style="ellipse;whiteSpace=wrap;html=1;labelBackgroundColor=none;fillColor=#FAE5C7;strokeColor=#0F8B8D;fontColor=#143642;" parent="1" vertex="1">
          <mxGeometry x="1388" y="616" width="120" height="80" as="geometry" />
        </mxCell>
        <mxCell id="lAHb_dFoVDbz8oUHS4nn-41" value="name" style="ellipse;whiteSpace=wrap;html=1;labelBackgroundColor=none;fillColor=#FAE5C7;strokeColor=#0F8B8D;fontColor=#143642;" parent="1" vertex="1">
          <mxGeometry x="1177" y="709" width="120" height="80" as="geometry" />
        </mxCell>
        <mxCell id="lAHb_dFoVDbz8oUHS4nn-42" value="&#xa;id&#xa;&#xa;" style="ellipse;whiteSpace=wrap;html=1;labelBackgroundColor=none;fillColor=#FAE5C7;strokeColor=#0F8B8D;fontColor=#143642;" parent="1" vertex="1">
          <mxGeometry x="1554" y="660" width="120" height="80" as="geometry" />
        </mxCell>
        <mxCell id="lAHb_dFoVDbz8oUHS4nn-43" value="" style="endArrow=none;html=1;rounded=0;fontSize=12;startSize=8;endSize=8;curved=1;exitX=0.5;exitY=1;exitDx=0;exitDy=0;entryX=0;entryY=0;entryDx=0;entryDy=0;labelBackgroundColor=none;strokeColor=#A8201A;fontColor=default;" parent="1" source="lAHb_dFoVDbz8oUHS4nn-41" target="lAHb_dFoVDbz8oUHS4nn-39" edge="1">
          <mxGeometry width="50" height="50" relative="1" as="geometry">
            <mxPoint x="1235" y="909" as="sourcePoint" />
            <mxPoint x="1341" y="859" as="targetPoint" />
          </mxGeometry>
        </mxCell>
        <mxCell id="lAHb_dFoVDbz8oUHS4nn-44" value="" style="endArrow=none;html=1;rounded=0;fontSize=12;startSize=8;endSize=8;curved=1;entryX=0.75;entryY=0;entryDx=0;entryDy=0;labelBackgroundColor=none;strokeColor=#A8201A;fontColor=default;" parent="1" source="lAHb_dFoVDbz8oUHS4nn-40" target="lAHb_dFoVDbz8oUHS4nn-39" edge="1">
          <mxGeometry width="50" height="50" relative="1" as="geometry">
            <mxPoint x="1220" y="760" as="sourcePoint" />
            <mxPoint x="1447" y="822" as="targetPoint" />
          </mxGeometry>
        </mxCell>
        <mxCell id="lAHb_dFoVDbz8oUHS4nn-45" value="" style="endArrow=none;html=1;rounded=0;fontSize=12;startSize=8;endSize=8;curved=1;exitX=1;exitY=0;exitDx=0;exitDy=0;entryX=0.31;entryY=0.935;entryDx=0;entryDy=0;entryPerimeter=0;labelBackgroundColor=none;strokeColor=#A8201A;fontColor=default;" parent="1" source="lAHb_dFoVDbz8oUHS4nn-39" target="lAHb_dFoVDbz8oUHS4nn-42" edge="1">
          <mxGeometry width="50" height="50" relative="1" as="geometry">
            <mxPoint x="1460" y="828" as="sourcePoint" />
            <mxPoint x="1617" y="846" as="targetPoint" />
          </mxGeometry>
        </mxCell>
        <mxCell id="lAHb_dFoVDbz8oUHS4nn-53" value="" style="rounded=0;whiteSpace=wrap;html=1;labelBackgroundColor=none;fillColor=#FAE5C7;strokeColor=#0F8B8D;fontColor=#143642;" parent="1" vertex="1">
          <mxGeometry x="-60" y="-49" width="189" height="60" as="geometry" />
        </mxCell>
        <mxCell id="lAHb_dFoVDbz8oUHS4nn-54" value="academic_year" style="ellipse;whiteSpace=wrap;html=1;labelBackgroundColor=none;fillColor=#FAE5C7;strokeColor=#0F8B8D;fontColor=#143642;" parent="1" vertex="1">
          <mxGeometry x="-45" y="-251" width="120" height="80" as="geometry" />
        </mxCell>
        <mxCell id="lAHb_dFoVDbz8oUHS4nn-55" value="number" style="ellipse;whiteSpace=wrap;html=1;labelBackgroundColor=none;fillColor=#FAE5C7;strokeColor=#0F8B8D;fontColor=#143642;" parent="1" vertex="1">
          <mxGeometry x="-177" y="-194" width="120" height="80" as="geometry" />
        </mxCell>
        <mxCell id="lAHb_dFoVDbz8oUHS4nn-56" value="&#xa;id&#xa;&#xa;" style="ellipse;whiteSpace=wrap;html=1;labelBackgroundColor=none;fillColor=#FAE5C7;strokeColor=#0F8B8D;fontColor=#143642;" parent="1" vertex="1">
          <mxGeometry x="99" y="-186" width="120" height="80" as="geometry" />
        </mxCell>
        <mxCell id="lAHb_dFoVDbz8oUHS4nn-57" value="" style="endArrow=none;html=1;rounded=0;fontSize=12;startSize=8;endSize=8;curved=1;exitX=0.5;exitY=1;exitDx=0;exitDy=0;entryX=0;entryY=0;entryDx=0;entryDy=0;labelBackgroundColor=none;strokeColor=#A8201A;fontColor=default;" parent="1" source="lAHb_dFoVDbz8oUHS4nn-55" target="lAHb_dFoVDbz8oUHS4nn-53" edge="1">
          <mxGeometry width="50" height="50" relative="1" as="geometry">
            <mxPoint x="-166" y="31" as="sourcePoint" />
            <mxPoint x="-60" y="-19" as="targetPoint" />
          </mxGeometry>
        </mxCell>
        <mxCell id="lAHb_dFoVDbz8oUHS4nn-58" value="" style="endArrow=none;html=1;rounded=0;fontSize=12;startSize=8;endSize=8;curved=1;entryX=0.5;entryY=0;entryDx=0;entryDy=0;labelBackgroundColor=none;strokeColor=#A8201A;fontColor=default;" parent="1" source="lAHb_dFoVDbz8oUHS4nn-54" target="lAHb_dFoVDbz8oUHS4nn-53" edge="1">
          <mxGeometry width="50" height="50" relative="1" as="geometry">
            <mxPoint x="-181" y="-118" as="sourcePoint" />
            <mxPoint x="-62" y="-50" as="targetPoint" />
          </mxGeometry>
        </mxCell>
        <mxCell id="lAHb_dFoVDbz8oUHS4nn-59" value="" style="endArrow=none;html=1;rounded=0;fontSize=12;startSize=8;endSize=8;curved=1;exitX=1;exitY=0;exitDx=0;exitDy=0;entryX=0.5;entryY=1;entryDx=0;entryDy=0;labelBackgroundColor=none;strokeColor=#A8201A;fontColor=default;" parent="1" source="lAHb_dFoVDbz8oUHS4nn-53" target="lAHb_dFoVDbz8oUHS4nn-56" edge="1">
          <mxGeometry width="50" height="50" relative="1" as="geometry">
            <mxPoint x="59" y="-50" as="sourcePoint" />
            <mxPoint x="216" y="-32" as="targetPoint" />
          </mxGeometry>
        </mxCell>
        <mxCell id="lAHb_dFoVDbz8oUHS4nn-74" value="&lt;div&gt;lesson&lt;/div&gt;" style="rounded=0;whiteSpace=wrap;html=1;labelBackgroundColor=none;fillColor=#FAE5C7;strokeColor=#0F8B8D;fontColor=#143642;" parent="1" vertex="1">
          <mxGeometry x="796" y="-96" width="120" height="60" as="geometry" />
        </mxCell>
        <mxCell id="lAHb_dFoVDbz8oUHS4nn-75" value="group_id" style="ellipse;whiteSpace=wrap;html=1;labelBackgroundColor=none;fillColor=#FAE5C7;strokeColor=#0F8B8D;fontColor=#143642;" parent="1" vertex="1">
          <mxGeometry x="550" y="-229" width="120" height="80" as="geometry" />
        </mxCell>
        <mxCell id="lAHb_dFoVDbz8oUHS4nn-76" value="max_students" style="ellipse;whiteSpace=wrap;html=1;labelBackgroundColor=none;fillColor=#FAE5C7;strokeColor=#0F8B8D;fontColor=#143642;" parent="1" vertex="1">
          <mxGeometry x="422" y="-149" width="120" height="80" as="geometry" />
        </mxCell>
        <mxCell id="lAHb_dFoVDbz8oUHS4nn-77" value="type" style="ellipse;whiteSpace=wrap;html=1;labelBackgroundColor=none;fillColor=#FAE5C7;strokeColor=#0F8B8D;fontColor=#143642;" parent="1" vertex="1">
          <mxGeometry x="634" y="-340" width="120" height="80" as="geometry" />
        </mxCell>
        <mxCell id="lAHb_dFoVDbz8oUHS4nn-78" value="professor_id" style="ellipse;whiteSpace=wrap;html=1;labelBackgroundColor=none;fillColor=#FAE5C7;strokeColor=#0F8B8D;fontColor=#143642;" parent="1" vertex="1">
          <mxGeometry x="781" y="-296" width="120" height="80" as="geometry" />
        </mxCell>
        <mxCell id="lAHb_dFoVDbz8oUHS4nn-79" value="discipline_id" style="ellipse;whiteSpace=wrap;html=1;labelBackgroundColor=none;fillColor=#FAE5C7;strokeColor=#0F8B8D;fontColor=#143642;" parent="1" vertex="1">
          <mxGeometry x="922" y="-376" width="120" height="80" as="geometry" />
        </mxCell>
        <mxCell id="lAHb_dFoVDbz8oUHS4nn-80" value="&#xa;id&#xa;&#xa;" style="ellipse;whiteSpace=wrap;html=1;labelBackgroundColor=none;fillColor=#FAE5C7;strokeColor=#0F8B8D;fontColor=#143642;" parent="1" vertex="1">
          <mxGeometry x="981" y="-254" width="120" height="80" as="geometry" />
        </mxCell>
        <mxCell id="lAHb_dFoVDbz8oUHS4nn-81" value="" style="endArrow=none;html=1;rounded=0;fontSize=12;startSize=8;endSize=8;curved=1;exitX=0.75;exitY=0;exitDx=0;exitDy=0;labelBackgroundColor=none;strokeColor=#A8201A;fontColor=default;" parent="1" source="lAHb_dFoVDbz8oUHS4nn-74" target="lAHb_dFoVDbz8oUHS4nn-79" edge="1">
          <mxGeometry width="50" height="50" relative="1" as="geometry">
            <mxPoint x="916" y="-79" as="sourcePoint" />
            <mxPoint x="966" y="-129" as="targetPoint" />
          </mxGeometry>
        </mxCell>
        <mxCell id="lAHb_dFoVDbz8oUHS4nn-82" value="" style="endArrow=none;html=1;rounded=0;fontSize=12;startSize=8;endSize=8;curved=1;entryX=0.5;entryY=1;entryDx=0;entryDy=0;exitX=0.25;exitY=0;exitDx=0;exitDy=0;labelBackgroundColor=none;strokeColor=#A8201A;fontColor=default;" parent="1" source="lAHb_dFoVDbz8oUHS4nn-74" target="lAHb_dFoVDbz8oUHS4nn-77" edge="1">
          <mxGeometry width="50" height="50" relative="1" as="geometry">
            <mxPoint x="825" y="-100" as="sourcePoint" />
            <mxPoint x="863" y="-165" as="targetPoint" />
          </mxGeometry>
        </mxCell>
        <mxCell id="lAHb_dFoVDbz8oUHS4nn-83" value="" style="endArrow=none;html=1;rounded=0;fontSize=12;startSize=8;endSize=8;curved=1;exitX=0.973;exitY=0.698;exitDx=0;exitDy=0;exitPerimeter=0;labelBackgroundColor=none;strokeColor=#A8201A;fontColor=default;" parent="1" source="lAHb_dFoVDbz8oUHS4nn-76" edge="1">
          <mxGeometry width="50" height="50" relative="1" as="geometry">
            <mxPoint x="690" y="-16" as="sourcePoint" />
            <mxPoint x="796" y="-66" as="targetPoint" />
          </mxGeometry>
        </mxCell>
        <mxCell id="lAHb_dFoVDbz8oUHS4nn-84" value="" style="endArrow=none;html=1;rounded=0;fontSize=12;startSize=8;endSize=8;curved=1;entryX=0;entryY=0;entryDx=0;entryDy=0;exitX=1;exitY=1;exitDx=0;exitDy=0;labelBackgroundColor=none;strokeColor=#A8201A;fontColor=default;" parent="1" source="lAHb_dFoVDbz8oUHS4nn-75" target="lAHb_dFoVDbz8oUHS4nn-74" edge="1">
          <mxGeometry width="50" height="50" relative="1" as="geometry">
            <mxPoint x="675" y="-165" as="sourcePoint" />
            <mxPoint x="794" y="-97" as="targetPoint" />
          </mxGeometry>
        </mxCell>
        <mxCell id="lAHb_dFoVDbz8oUHS4nn-85" value="" style="endArrow=none;html=1;rounded=0;fontSize=12;startSize=8;endSize=8;curved=1;entryX=0.5;entryY=1;entryDx=0;entryDy=0;exitX=0.458;exitY=0;exitDx=0;exitDy=0;exitPerimeter=0;labelBackgroundColor=none;strokeColor=#A8201A;fontColor=default;" parent="1" source="lAHb_dFoVDbz8oUHS4nn-74" target="lAHb_dFoVDbz8oUHS4nn-78" edge="1">
          <mxGeometry width="50" height="50" relative="1" as="geometry">
            <mxPoint x="846" y="-96" as="sourcePoint" />
            <mxPoint x="952" y="-146" as="targetPoint" />
          </mxGeometry>
        </mxCell>
        <mxCell id="lAHb_dFoVDbz8oUHS4nn-86" value="" style="endArrow=none;html=1;rounded=0;fontSize=12;startSize=8;endSize=8;curved=1;entryX=0;entryY=1;entryDx=0;entryDy=0;exitX=1;exitY=0.25;exitDx=0;exitDy=0;labelBackgroundColor=none;strokeColor=#A8201A;fontColor=default;" parent="1" source="lAHb_dFoVDbz8oUHS4nn-74" target="lAHb_dFoVDbz8oUHS4nn-80" edge="1">
          <mxGeometry width="50" height="50" relative="1" as="geometry">
            <mxPoint x="924" y="-37" as="sourcePoint" />
            <mxPoint x="1072" y="-79" as="targetPoint" />
          </mxGeometry>
        </mxCell>
        <mxCell id="lAHb_dFoVDbz8oUHS4nn-87" value="date" style="ellipse;whiteSpace=wrap;html=1;labelBackgroundColor=none;fillColor=#FAE5C7;strokeColor=#0F8B8D;fontColor=#143642;" parent="1" vertex="1">
          <mxGeometry x="535" y="-29" width="120" height="80" as="geometry" />
        </mxCell>
        <mxCell id="lAHb_dFoVDbz8oUHS4nn-88" value="" style="endArrow=none;html=1;rounded=0;fontSize=12;startSize=8;endSize=8;curved=1;exitX=0.959;exitY=0.305;exitDx=0;exitDy=0;exitPerimeter=0;entryX=0.001;entryY=0.69;entryDx=0;entryDy=0;entryPerimeter=0;labelBackgroundColor=none;strokeColor=#A8201A;fontColor=default;" parent="1" source="lAHb_dFoVDbz8oUHS4nn-87" target="lAHb_dFoVDbz8oUHS4nn-74" edge="1">
          <mxGeometry width="50" height="50" relative="1" as="geometry">
            <mxPoint x="658" y="-43" as="sourcePoint" />
            <mxPoint x="795" y="-54" as="targetPoint" />
          </mxGeometry>
        </mxCell>
        <mxCell id="lAHb_dFoVDbz8oUHS4nn-90" value="day_of_week" style="ellipse;whiteSpace=wrap;html=1;labelBackgroundColor=none;fillColor=#FAE5C7;strokeColor=#0F8B8D;fontColor=#143642;" parent="1" vertex="1">
          <mxGeometry x="1137" y="-18" width="120" height="80" as="geometry" />
        </mxCell>
        <mxCell id="lAHb_dFoVDbz8oUHS4nn-91" value="start_time" style="ellipse;whiteSpace=wrap;html=1;labelBackgroundColor=none;fillColor=#FAE5C7;strokeColor=#0F8B8D;fontColor=#143642;" parent="1" vertex="1">
          <mxGeometry x="1073" y="-112" width="120" height="80" as="geometry" />
        </mxCell>
        <mxCell id="lAHb_dFoVDbz8oUHS4nn-92" value="" style="endArrow=none;html=1;rounded=0;fontSize=12;startSize=8;endSize=8;curved=1;entryX=1;entryY=1;entryDx=0;entryDy=0;exitX=0;exitY=0.5;exitDx=0;exitDy=0;labelBackgroundColor=none;strokeColor=#A8201A;fontColor=default;" parent="1" source="lAHb_dFoVDbz8oUHS4nn-90" target="lAHb_dFoVDbz8oUHS4nn-74" edge="1">
          <mxGeometry width="50" height="50" relative="1" as="geometry">
            <mxPoint x="1136" y="8" as="sourcePoint" />
            <mxPoint x="840" y="-36" as="targetPoint" />
          </mxGeometry>
        </mxCell>
        <mxCell id="lAHb_dFoVDbz8oUHS4nn-93" value="" style="endArrow=none;html=1;rounded=0;fontSize=12;startSize=8;endSize=8;curved=1;exitX=0.017;exitY=0.365;exitDx=0;exitDy=0;entryX=1;entryY=0.75;entryDx=0;entryDy=0;exitPerimeter=0;labelBackgroundColor=none;strokeColor=#A8201A;fontColor=default;" parent="1" source="lAHb_dFoVDbz8oUHS4nn-91" target="lAHb_dFoVDbz8oUHS4nn-74" edge="1">
          <mxGeometry width="50" height="50" relative="1" as="geometry">
            <mxPoint x="794.5" y="8" as="sourcePoint" />
            <mxPoint x="897.5" y="-40" as="targetPoint" />
          </mxGeometry>
        </mxCell>
        <mxCell id="lAHb_dFoVDbz8oUHS4nn-94" value="end_time" style="ellipse;whiteSpace=wrap;html=1;labelBackgroundColor=none;fillColor=#FAE5C7;strokeColor=#0F8B8D;fontColor=#143642;" parent="1" vertex="1">
          <mxGeometry x="1158" y="-216" width="120" height="80" as="geometry" />
        </mxCell>
        <mxCell id="lAHb_dFoVDbz8oUHS4nn-95" value="" style="endArrow=none;html=1;rounded=0;fontSize=12;startSize=8;endSize=8;curved=1;exitX=0.005;exitY=0.471;exitDx=0;exitDy=0;entryX=1;entryY=0.5;entryDx=0;entryDy=0;exitPerimeter=0;labelBackgroundColor=none;strokeColor=#A8201A;fontColor=default;" parent="1" source="lAHb_dFoVDbz8oUHS4nn-94" target="lAHb_dFoVDbz8oUHS4nn-74" edge="1">
          <mxGeometry width="50" height="50" relative="1" as="geometry">
            <mxPoint x="895" y="87" as="sourcePoint" />
            <mxPoint x="866" y="-26" as="targetPoint" />
          </mxGeometry>
        </mxCell>
        <mxCell id="lAHb_dFoVDbz8oUHS4nn-98" value="Schedule" style="rounded=0;whiteSpace=wrap;html=1;labelBackgroundColor=none;fillColor=#FAE5C7;strokeColor=#0F8B8D;fontColor=#143642;" parent="1" vertex="1">
          <mxGeometry x="553" y="831" width="138" height="71" as="geometry" />
        </mxCell>
        <mxCell id="lAHb_dFoVDbz8oUHS4nn-99" value="audience_id" style="ellipse;whiteSpace=wrap;html=1;labelBackgroundColor=none;fillColor=#FAE5C7;strokeColor=#0F8B8D;fontColor=#143642;" parent="1" vertex="1">
          <mxGeometry x="763" y="666" width="120" height="80" as="geometry" />
        </mxCell>
        <mxCell id="lAHb_dFoVDbz8oUHS4nn-100" value="lesson_id" style="ellipse;whiteSpace=wrap;html=1;labelBackgroundColor=none;fillColor=#FAE5C7;strokeColor=#0F8B8D;fontColor=#143642;" parent="1" vertex="1">
          <mxGeometry x="387" y="677" width="120" height="80" as="geometry" />
        </mxCell>
        <mxCell id="lAHb_dFoVDbz8oUHS4nn-101" value="&#xa;id&#xa;&#xa;" style="ellipse;whiteSpace=wrap;html=1;labelBackgroundColor=none;fillColor=#FAE5C7;strokeColor=#0F8B8D;fontColor=#143642;" parent="1" vertex="1">
          <mxGeometry x="756" y="770" width="120" height="80" as="geometry" />
        </mxCell>
        <mxCell id="lAHb_dFoVDbz8oUHS4nn-102" value="" style="endArrow=none;html=1;rounded=0;fontSize=12;startSize=8;endSize=8;curved=1;exitX=1;exitY=1;exitDx=0;exitDy=0;entryX=0;entryY=0;entryDx=0;entryDy=0;labelBackgroundColor=none;strokeColor=#A8201A;fontColor=default;" parent="1" source="lAHb_dFoVDbz8oUHS4nn-100" target="lAHb_dFoVDbz8oUHS4nn-98" edge="1">
          <mxGeometry width="50" height="50" relative="1" as="geometry">
            <mxPoint x="447" y="911" as="sourcePoint" />
            <mxPoint x="553" y="861" as="targetPoint" />
          </mxGeometry>
        </mxCell>
        <mxCell id="lAHb_dFoVDbz8oUHS4nn-103" value="" style="endArrow=none;html=1;rounded=0;fontSize=12;startSize=8;endSize=8;curved=1;entryX=0.75;entryY=0;entryDx=0;entryDy=0;labelBackgroundColor=none;strokeColor=#A8201A;fontColor=default;" parent="1" source="lAHb_dFoVDbz8oUHS4nn-99" target="lAHb_dFoVDbz8oUHS4nn-98" edge="1">
          <mxGeometry width="50" height="50" relative="1" as="geometry">
            <mxPoint x="432" y="762" as="sourcePoint" />
            <mxPoint x="551" y="830" as="targetPoint" />
          </mxGeometry>
        </mxCell>
        <mxCell id="lAHb_dFoVDbz8oUHS4nn-104" value="" style="endArrow=none;html=1;rounded=0;fontSize=12;startSize=8;endSize=8;curved=1;exitX=1;exitY=0.5;exitDx=0;exitDy=0;entryX=0.31;entryY=0.935;entryDx=0;entryDy=0;entryPerimeter=0;labelBackgroundColor=none;strokeColor=#A8201A;fontColor=default;" parent="1" source="lAHb_dFoVDbz8oUHS4nn-98" target="lAHb_dFoVDbz8oUHS4nn-101" edge="1">
          <mxGeometry width="50" height="50" relative="1" as="geometry">
            <mxPoint x="672" y="830" as="sourcePoint" />
            <mxPoint x="829" y="848" as="targetPoint" />
          </mxGeometry>
        </mxCell>
        <mxCell id="lAHb_dFoVDbz8oUHS4nn-105" value="Audience" style="text;strokeColor=none;fillColor=none;html=1;fontSize=24;fontStyle=1;verticalAlign=middle;align=center;labelBackgroundColor=none;fontColor=#143642;" parent="1" vertex="1">
          <mxGeometry x="-27.5" y="839.5" width="100" height="40" as="geometry" />
        </mxCell>
        <mxCell id="lAHb_dFoVDbz8oUHS4nn-106" value="Discipline" style="text;strokeColor=none;fillColor=none;html=1;fontSize=24;fontStyle=1;verticalAlign=middle;align=center;labelBackgroundColor=none;fontColor=#143642;" parent="1" vertex="1">
          <mxGeometry x="1368" y="845.5" width="92" height="40" as="geometry" />
        </mxCell>
        <mxCell id="lAHb_dFoVDbz8oUHS4nn-107" value="Professor" style="text;strokeColor=none;fillColor=none;html=1;fontSize=24;fontStyle=1;verticalAlign=middle;align=center;labelBackgroundColor=none;fontColor=#143642;" parent="1" vertex="1">
          <mxGeometry x="1608" y="-39" width="100" height="40" as="geometry" />
        </mxCell>
        <mxCell id="lAHb_dFoVDbz8oUHS4nn-108" value="StudentGroup" style="text;strokeColor=none;fillColor=none;html=1;fontSize=24;fontStyle=1;verticalAlign=middle;align=center;labelBackgroundColor=none;fontColor=#143642;" parent="1" vertex="1">
          <mxGeometry x="-15.5" y="-39" width="100" height="40" as="geometry" />
        </mxCell>
        <mxCell id="lAHb_dFoVDbz8oUHS4nn-112" value="" style="endArrow=none;html=1;rounded=0;fontSize=12;startSize=8;endSize=8;curved=1;entryX=0.75;entryY=0;entryDx=0;entryDy=0;exitX=0;exitY=1;exitDx=0;exitDy=0;labelBackgroundColor=none;strokeColor=#A8201A;fontColor=default;" parent="1" source="lAHb_dFoVDbz8oUHS4nn-111" target="lAHb_dFoVDbz8oUHS4nn-1" edge="1">
          <mxGeometry width="50" height="50" relative="1" as="geometry">
            <mxPoint x="815" y="236" as="sourcePoint" />
            <mxPoint x="865" y="186" as="targetPoint" />
          </mxGeometry>
        </mxCell>
        <mxCell id="lAHb_dFoVDbz8oUHS4nn-113" value="" style="group;labelBackgroundColor=none;fontColor=#143642;" parent="1" vertex="1" connectable="0">
          <mxGeometry x="345" y="432" width="152" height="109" as="geometry" />
        </mxCell>
        <mxCell id="lAHb_dFoVDbz8oUHS4nn-110" value="" style="rhombus;whiteSpace=wrap;html=1;labelBackgroundColor=none;fillColor=#FAE5C7;strokeColor=#0F8B8D;fontColor=#143642;" parent="lAHb_dFoVDbz8oUHS4nn-113" vertex="1">
          <mxGeometry width="152" height="109" as="geometry" />
        </mxCell>
        <mxCell id="lAHb_dFoVDbz8oUHS4nn-111" value="Held_in" style="text;strokeColor=none;fillColor=none;html=1;fontSize=24;fontStyle=1;verticalAlign=middle;align=center;labelBackgroundColor=none;fontColor=#143642;" parent="lAHb_dFoVDbz8oUHS4nn-113" vertex="1">
          <mxGeometry x="36.824742268041234" y="39.46551724137931" width="78.35051546391753" height="30.06896551724138" as="geometry" />
        </mxCell>
        <mxCell id="lAHb_dFoVDbz8oUHS4nn-114" value="" style="endArrow=none;html=1;rounded=0;fontSize=12;startSize=8;endSize=8;curved=1;exitX=1;exitY=1;exitDx=0;exitDy=0;entryX=0.365;entryY=0.008;entryDx=0;entryDy=0;entryPerimeter=0;labelBackgroundColor=none;strokeColor=#A8201A;fontColor=default;" parent="1" source="lAHb_dFoVDbz8oUHS4nn-110" target="lAHb_dFoVDbz8oUHS4nn-98" edge="1">
          <mxGeometry width="50" height="50" relative="1" as="geometry">
            <mxPoint x="378" y="282" as="sourcePoint" />
            <mxPoint x="573" y="951" as="targetPoint" />
          </mxGeometry>
        </mxCell>
        <mxCell id="lAHb_dFoVDbz8oUHS4nn-121" value="" style="group;labelBackgroundColor=none;fontColor=#143642;" parent="1" vertex="1" connectable="0">
          <mxGeometry x="1126" y="231" width="152" height="109" as="geometry" />
        </mxCell>
        <mxCell id="lAHb_dFoVDbz8oUHS4nn-122" value="" style="rhombus;whiteSpace=wrap;html=1;labelBackgroundColor=none;fillColor=#FAE5C7;strokeColor=#0F8B8D;fontColor=#143642;" parent="lAHb_dFoVDbz8oUHS4nn-121" vertex="1">
          <mxGeometry width="152" height="109" as="geometry" />
        </mxCell>
        <mxCell id="lAHb_dFoVDbz8oUHS4nn-123" value="Teaches" style="text;strokeColor=none;fillColor=none;html=1;fontSize=24;fontStyle=1;verticalAlign=middle;align=center;labelBackgroundColor=none;fontColor=#143642;" parent="lAHb_dFoVDbz8oUHS4nn-121" vertex="1">
          <mxGeometry x="36.824742268041234" y="39.46551724137931" width="78.35051546391753" height="30.06896551724138" as="geometry" />
        </mxCell>
        <mxCell id="lAHb_dFoVDbz8oUHS4nn-124" value="" style="endArrow=none;html=1;rounded=0;fontSize=12;startSize=8;endSize=8;curved=1;entryX=0;entryY=0;entryDx=0;entryDy=0;exitX=0.75;exitY=1;exitDx=0;exitDy=0;labelBackgroundColor=none;strokeColor=#A8201A;fontColor=default;" parent="1" source="lAHb_dFoVDbz8oUHS4nn-74" target="lAHb_dFoVDbz8oUHS4nn-122" edge="1">
          <mxGeometry width="50" height="50" relative="1" as="geometry">
            <mxPoint x="482" y="285" as="sourcePoint" />
            <mxPoint x="806" y="-26" as="targetPoint" />
          </mxGeometry>
        </mxCell>
        <mxCell id="lAHb_dFoVDbz8oUHS4nn-125" value="" style="endArrow=none;html=1;rounded=0;fontSize=12;startSize=8;endSize=8;curved=1;entryX=0.5;entryY=1;entryDx=0;entryDy=0;exitX=1;exitY=0.5;exitDx=0;exitDy=0;labelBackgroundColor=none;strokeColor=#A8201A;fontColor=default;" parent="1" source="lAHb_dFoVDbz8oUHS4nn-122" target="lAHb_dFoVDbz8oUHS4nn-19" edge="1">
          <mxGeometry width="50" height="50" relative="1" as="geometry">
            <mxPoint x="1161" y="22" as="sourcePoint" />
            <mxPoint x="1445" y="275" as="targetPoint" />
          </mxGeometry>
        </mxCell>
        <mxCell id="lAHb_dFoVDbz8oUHS4nn-126" value="" style="group;labelBackgroundColor=none;fontColor=#143642;" parent="1" vertex="1" connectable="0">
          <mxGeometry x="345" y="229" width="152" height="109" as="geometry" />
        </mxCell>
        <mxCell id="lAHb_dFoVDbz8oUHS4nn-127" value="" style="rhombus;whiteSpace=wrap;html=1;labelBackgroundColor=none;fillColor=#FAE5C7;strokeColor=#0F8B8D;fontColor=#143642;" parent="lAHb_dFoVDbz8oUHS4nn-126" vertex="1">
          <mxGeometry width="152" height="109" as="geometry" />
        </mxCell>
        <mxCell id="lAHb_dFoVDbz8oUHS4nn-128" value="Attends" style="text;strokeColor=none;fillColor=none;html=1;fontSize=24;fontStyle=1;verticalAlign=middle;align=center;labelBackgroundColor=none;fontColor=#143642;" parent="lAHb_dFoVDbz8oUHS4nn-126" vertex="1">
          <mxGeometry x="36.824742268041234" y="39.46551724137931" width="78.35051546391753" height="30.06896551724138" as="geometry" />
        </mxCell>
        <mxCell id="lAHb_dFoVDbz8oUHS4nn-129" value="" style="endArrow=none;html=1;rounded=0;fontSize=12;startSize=8;endSize=8;curved=1;entryX=0.5;entryY=1;entryDx=0;entryDy=0;exitX=0;exitY=0;exitDx=0;exitDy=0;labelBackgroundColor=none;strokeColor=#A8201A;fontColor=default;" parent="1" source="lAHb_dFoVDbz8oUHS4nn-127" target="lAHb_dFoVDbz8oUHS4nn-53" edge="1">
          <mxGeometry width="50" height="50" relative="1" as="geometry">
            <mxPoint x="492" y="576" as="sourcePoint" />
            <mxPoint x="208" y="499" as="targetPoint" />
          </mxGeometry>
        </mxCell>
        <mxCell id="lAHb_dFoVDbz8oUHS4nn-130" value="" style="endArrow=none;html=1;rounded=0;fontSize=12;startSize=8;endSize=8;curved=1;entryX=1;entryY=0;entryDx=0;entryDy=0;exitX=0.25;exitY=1;exitDx=0;exitDy=0;labelBackgroundColor=none;strokeColor=#A8201A;fontColor=default;" parent="1" source="lAHb_dFoVDbz8oUHS4nn-74" target="lAHb_dFoVDbz8oUHS4nn-127" edge="1">
          <mxGeometry width="50" height="50" relative="1" as="geometry">
            <mxPoint x="857" y="-32" as="sourcePoint" />
            <mxPoint x="441" y="238" as="targetPoint" />
          </mxGeometry>
        </mxCell>
        <mxCell id="lAHb_dFoVDbz8oUHS4nn-135" value="" style="group;labelBackgroundColor=none;fontColor=#143642;" parent="1" vertex="1" connectable="0">
          <mxGeometry x="1077" y="477" width="152" height="109" as="geometry" />
        </mxCell>
        <mxCell id="lAHb_dFoVDbz8oUHS4nn-136" value="" style="rhombus;whiteSpace=wrap;html=1;labelBackgroundColor=none;fillColor=#FAE5C7;strokeColor=#0F8B8D;fontColor=#143642;" parent="lAHb_dFoVDbz8oUHS4nn-135" vertex="1">
          <mxGeometry width="152" height="109" as="geometry" />
        </mxCell>
        <mxCell id="lAHb_dFoVDbz8oUHS4nn-137" value="Related_to" style="text;strokeColor=none;fillColor=none;html=1;fontSize=24;fontStyle=1;verticalAlign=middle;align=center;labelBackgroundColor=none;fontColor=#143642;" parent="lAHb_dFoVDbz8oUHS4nn-135" vertex="1">
          <mxGeometry x="36.824742268041234" y="39.46551724137931" width="78.35051546391753" height="30.06896551724138" as="geometry" />
        </mxCell>
        <mxCell id="lAHb_dFoVDbz8oUHS4nn-138" value="" style="endArrow=none;html=1;rounded=0;fontSize=12;startSize=8;endSize=8;curved=1;entryX=0.5;entryY=0;entryDx=0;entryDy=0;exitX=1;exitY=1;exitDx=0;exitDy=0;labelBackgroundColor=none;strokeColor=#A8201A;fontColor=default;" parent="1" source="lAHb_dFoVDbz8oUHS4nn-136" target="lAHb_dFoVDbz8oUHS4nn-39" edge="1">
          <mxGeometry width="50" height="50" relative="1" as="geometry">
            <mxPoint x="937" y="422" as="sourcePoint" />
            <mxPoint x="1221" y="675" as="targetPoint" />
          </mxGeometry>
        </mxCell>
        <mxCell id="lAHb_dFoVDbz8oUHS4nn-139" value="" style="endArrow=none;html=1;rounded=0;fontSize=12;startSize=8;endSize=8;curved=1;entryX=0.316;entryY=0.175;entryDx=0;entryDy=0;exitX=0.5;exitY=1;exitDx=0;exitDy=0;entryPerimeter=0;labelBackgroundColor=none;strokeColor=#A8201A;fontColor=default;" parent="1" source="lAHb_dFoVDbz8oUHS4nn-74" target="lAHb_dFoVDbz8oUHS4nn-136" edge="1">
          <mxGeometry width="50" height="50" relative="1" as="geometry">
            <mxPoint x="814" y="51" as="sourcePoint" />
            <mxPoint x="1098" y="304" as="targetPoint" />
          </mxGeometry>
        </mxCell>
        <mxCell id="lAHb_dFoVDbz8oUHS4nn-140" value="" style="endArrow=none;html=1;rounded=0;fontSize=12;startSize=8;endSize=8;curved=1;exitX=0.775;exitY=0.72;exitDx=0;exitDy=0;exitPerimeter=0;entryX=0.408;entryY=-0.007;entryDx=0;entryDy=0;entryPerimeter=0;labelBackgroundColor=none;strokeColor=#A8201A;fontColor=default;" parent="1" source="lAHb_dFoVDbz8oUHS4nn-110" target="lAHb_dFoVDbz8oUHS4nn-98" edge="1">
          <mxGeometry width="50" height="50" relative="1" as="geometry">
            <mxPoint x="469" y="524" as="sourcePoint" />
            <mxPoint x="597" y="956" as="targetPoint" />
          </mxGeometry>
        </mxCell>
        <mxCell id="lAHb_dFoVDbz8oUHS4nn-141" value="" style="endArrow=none;html=1;rounded=0;fontSize=12;startSize=8;endSize=8;curved=1;entryX=0.343;entryY=0.148;entryDx=0;entryDy=0;exitX=0.551;exitY=1.008;exitDx=0;exitDy=0;entryPerimeter=0;exitPerimeter=0;labelBackgroundColor=none;strokeColor=#A8201A;fontColor=default;" parent="1" source="lAHb_dFoVDbz8oUHS4nn-74" target="lAHb_dFoVDbz8oUHS4nn-136" edge="1">
          <mxGeometry width="50" height="50" relative="1" as="geometry">
            <mxPoint x="866" y="-29" as="sourcePoint" />
            <mxPoint x="1192" y="446" as="targetPoint" />
          </mxGeometry>
        </mxCell>
        <mxCell id="lAHb_dFoVDbz8oUHS4nn-142" value="" style="endArrow=none;html=1;rounded=0;fontSize=12;startSize=8;endSize=8;curved=1;entryX=0.273;entryY=0.219;entryDx=0;entryDy=0;exitX=0.75;exitY=1;exitDx=0;exitDy=0;entryPerimeter=0;labelBackgroundColor=none;strokeColor=#A8201A;fontColor=default;" parent="1" target="lAHb_dFoVDbz8oUHS4nn-122" edge="1">
          <mxGeometry width="50" height="50" relative="1" as="geometry">
            <mxPoint x="893" y="-36" as="sourcePoint" />
            <mxPoint x="1177" y="217" as="targetPoint" />
          </mxGeometry>
        </mxCell>
        <mxCell id="lAHb_dFoVDbz8oUHS4nn-144" value="" style="endArrow=none;html=1;rounded=0;fontSize=12;startSize=8;endSize=8;curved=1;entryX=0.785;entryY=0.284;entryDx=0;entryDy=0;entryPerimeter=0;exitX=0.305;exitY=1.004;exitDx=0;exitDy=0;exitPerimeter=0;labelBackgroundColor=none;strokeColor=#A8201A;fontColor=default;" parent="1" source="lAHb_dFoVDbz8oUHS4nn-74" target="lAHb_dFoVDbz8oUHS4nn-127" edge="1">
          <mxGeometry width="50" height="50" relative="1" as="geometry">
            <mxPoint x="830.5" y="-32" as="sourcePoint" />
            <mxPoint x="462.99599999999987" y="262.08399999999995" as="targetPoint" />
          </mxGeometry>
        </mxCell>
        <mxCell id="lronnEEKRaOJ9cWfOHRz-1" value="" style="group;labelBackgroundColor=none;fontColor=#143642;" vertex="1" connectable="0" parent="1">
          <mxGeometry x="658" y="415" width="192" height="126" as="geometry" />
        </mxCell>
        <mxCell id="lronnEEKRaOJ9cWfOHRz-2" value="" style="rhombus;whiteSpace=wrap;html=1;labelBackgroundColor=none;fillColor=#FAE5C7;strokeColor=#0F8B8D;fontColor=#143642;" vertex="1" parent="lronnEEKRaOJ9cWfOHRz-1">
          <mxGeometry width="192" height="126" as="geometry" />
        </mxCell>
        <mxCell id="lronnEEKRaOJ9cWfOHRz-3" value="Scheduled_in" style="text;strokeColor=none;fillColor=none;html=1;fontSize=24;fontStyle=1;verticalAlign=middle;align=center;labelBackgroundColor=none;fontColor=#143642;" vertex="1" parent="lronnEEKRaOJ9cWfOHRz-1">
          <mxGeometry x="46.515463917525764" y="45.62068965517242" width="98.96907216494846" height="34.758620689655174" as="geometry" />
        </mxCell>
        <mxCell id="lronnEEKRaOJ9cWfOHRz-6" value="" style="endArrow=none;html=1;rounded=0;fontSize=12;startSize=8;endSize=8;curved=1;entryX=0.5;entryY=0;entryDx=0;entryDy=0;exitX=0.5;exitY=1;exitDx=0;exitDy=0;labelBackgroundColor=none;strokeColor=#A8201A;fontColor=default;" edge="1" parent="1" source="lronnEEKRaOJ9cWfOHRz-2" target="lAHb_dFoVDbz8oUHS4nn-98">
          <mxGeometry width="50" height="50" relative="1" as="geometry">
            <mxPoint x="707" y="509" as="sourcePoint" />
            <mxPoint x="381" y="835" as="targetPoint" />
          </mxGeometry>
        </mxCell>
        <mxCell id="lronnEEKRaOJ9cWfOHRz-7" value="" style="endArrow=none;html=1;rounded=0;fontSize=12;startSize=8;endSize=8;curved=1;entryX=0.5;entryY=0;entryDx=0;entryDy=0;exitX=0.424;exitY=0.994;exitDx=0;exitDy=0;labelBackgroundColor=none;strokeColor=#A8201A;fontColor=default;exitPerimeter=0;" edge="1" parent="1" source="lAHb_dFoVDbz8oUHS4nn-74" target="lronnEEKRaOJ9cWfOHRz-2">
          <mxGeometry width="50" height="50" relative="1" as="geometry">
            <mxPoint x="850" y="-32" as="sourcePoint" />
            <mxPoint x="744" y="280" as="targetPoint" />
          </mxGeometry>
        </mxCell>
      </root>
    </mxGraphModel>
  </diagram>
</mxfile>
